M48
; DRILL file {KiCad (5.1.0)-1} date 25/04/2019 08:53:28
; FORMAT={-:-/ absolute / metric / decimal}
; #@! TF.CreationDate,2019-04-25T08:53:28+02:00
; #@! TF.GenerationSoftware,Kicad,Pcbnew,(5.1.0)-1
; #@! TF.FileFunction,Plated,1,4,PTH
FMAT,2
METRIC
T1C0.500
T2C0.900
T3C0.950
T4C1.000
T5C1.320
T6C2.000
T7C3.200
%
G90
G05
T1
X85.725Y-81.661
X89.535Y-85.725
X89.535Y-86.995
X89.535Y-102.87
X90.17Y-90.17
X90.17Y-92.71
X90.17Y-95.25
X90.805Y-102.87
X91.44Y-91.44
X91.44Y-93.98
X91.44Y-96.52
X91.821Y-39.243
X95.885Y-95.885
X95.885Y-98.425
X96.139Y-84.455
X96.139Y-86.106
X96.139Y-87.63
X97.155Y-94.615
X97.155Y-97.155
X97.79Y-84.455
X97.79Y-106.68
X98.298Y-104.14
X98.425Y-95.885
X98.425Y-98.425
X98.679Y-105.41
X99.695Y-84.455
X99.695Y-99.06
X100.33Y-83.185
X100.965Y-95.885
X100.965Y-98.425
X101.6Y-105.41
X102.235Y-94.615
X102.235Y-97.155
X102.235Y-104.14
X102.87Y-102.87
X103.505Y-48.26
X103.505Y-49.53
X103.505Y-53.34
X103.505Y-95.885
X103.505Y-98.425
X103.632Y-83.185
X104.775Y-48.26
X104.775Y-49.53
X106.045Y-48.26
X106.045Y-49.53
X106.68Y-38.1
X107.315Y-48.26
X107.315Y-49.53
X107.95Y-38.1
X107.95Y-91.44
X107.95Y-93.98
X107.95Y-96.52
X108.585Y-48.26
X108.585Y-49.53
X108.585Y-65.405
X108.585Y-102.87
X109.22Y-38.1
X109.22Y-90.17
X109.22Y-92.71
X109.22Y-95.25
X109.855Y-65.405
X109.855Y-102.87
X110.363Y-33.909
X110.49Y-38.1
X111.125Y-65.405
X111.125Y-85.725
X111.125Y-86.995
X111.76Y-38.1
X112.395Y-62.23
X112.395Y-102.87
X113.03Y-38.1
X113.03Y-90.17
X113.03Y-92.71
X113.03Y-95.25
X113.665Y-62.23
X113.665Y-102.87
X114.3Y-38.1
X114.3Y-59.69
X114.3Y-91.44
X114.3Y-93.98
X114.3Y-96.52
X114.935Y-62.23
X115.57Y-38.1
X115.57Y-59.69
X116.205Y-62.23
X116.84Y-38.1
X118.745Y-95.885
X118.745Y-98.425
X118.999Y-84.455
X118.999Y-86.106
X118.999Y-87.63
X120.015Y-94.615
X120.015Y-97.155
X120.65Y-84.455
X120.65Y-106.68
X121.097Y-104.14
X121.285Y-38.227
X121.285Y-95.885
X121.285Y-98.425
X121.539Y-105.41
X122.555Y-38.227
X122.555Y-84.455
X122.555Y-99.06
X123.19Y-83.185
X123.825Y-38.227
X123.825Y-95.885
X123.825Y-98.425
X124.46Y-105.41
X125.095Y-38.227
X125.095Y-94.615
X125.095Y-97.155
X125.095Y-104.14
X125.73Y-102.87
X126.365Y-34.925
X126.365Y-38.227
X126.365Y-95.885
X126.365Y-98.425
X126.492Y-83.185
X127.477Y-53.34
X127.477Y-54.61
X127.635Y-38.227
X128.747Y-53.34
X128.747Y-54.61
X128.905Y-38.227
X130.81Y-91.44
X130.81Y-93.98
X130.81Y-96.52
X131.445Y-102.87
X132.08Y-90.17
X132.08Y-92.71
X132.08Y-95.25
X132.715Y-40.005
X132.715Y-48.895
X132.715Y-102.87
X133.827Y-53.34
X133.827Y-54.61
X133.985Y-40.005
X133.985Y-48.895
X133.985Y-85.725
X133.985Y-86.995
X134.62Y-34.925
X135.097Y-53.34
X135.128Y-54.61
X135.255Y-40.005
X135.255Y-48.895
X135.255Y-102.87
X135.89Y-90.17
X135.89Y-92.71
X135.89Y-95.25
X136.525Y-40.005
X136.525Y-48.895
X136.525Y-102.87
X137.16Y-59.69
X137.16Y-62.23
X137.16Y-91.44
X137.16Y-93.98
X137.16Y-96.52
X139.065Y-59.69
X139.065Y-62.23
X141.605Y-95.885
X141.605Y-98.425
X141.859Y-84.455
X141.859Y-86.106
X141.859Y-87.63
X142.875Y-34.925
X142.875Y-94.615
X142.875Y-97.155
X143.51Y-84.455
X143.51Y-106.68
X143.957Y-104.14
X144.145Y-95.885
X144.145Y-98.425
X144.399Y-105.41
X144.78Y-30.48
X145.415Y-45.72
X145.415Y-84.455
X145.415Y-99.06
X146.05Y-83.185
X146.685Y-95.885
X146.685Y-98.425
X147.32Y-105.41
X147.955Y-94.615
X147.955Y-97.155
X147.955Y-104.14
X148.59Y-41.783
X148.59Y-102.87
X149.225Y-95.885
X149.225Y-98.425
X149.352Y-83.185
X149.575Y-53.34
X149.575Y-54.61
X150.845Y-53.34
X150.845Y-54.61
X153.035Y-30.48
X153.67Y-91.44
X153.67Y-93.98
X153.67Y-96.52
X154.305Y-102.87
X154.94Y-90.17
X154.94Y-92.71
X154.94Y-95.25
X155.575Y-102.87
X155.925Y-53.34
X155.925Y-54.61
X156.845Y-85.725
X156.845Y-86.995
X157.195Y-53.34
X157.195Y-54.61
X157.48Y-37.465
X157.48Y-40.005
X157.734Y-65.786
X158.115Y-102.87
X158.75Y-90.17
X158.75Y-92.71
X158.75Y-95.25
X159.004Y-65.024
X159.004Y-66.548
X159.131Y-67.945
X159.385Y-102.87
X160.02Y-91.44
X160.02Y-93.98
X160.02Y-96.52
X160.358Y-67.927
X161.29Y-30.48
X161.544Y-67.945
X162.56Y-69.215
X162.689Y-67.929
X163.068Y-50.292
X164.465Y-95.885
X164.465Y-98.425
X164.592Y-37.084
X164.592Y-40.386
X164.592Y-38.735
X164.719Y-84.455
X164.719Y-86.106
X164.719Y-87.63
X164.719Y-43.942
X164.719Y-42.164
X164.846Y-70.485
X165.227Y-47.879
X165.227Y-61.468
X165.608Y-37.846
X165.608Y-39.497
X165.735Y-41.148
X165.735Y-44.958
X165.735Y-71.374
X165.735Y-94.615
X165.735Y-97.155
X165.76Y-42.98
X166.243Y-46.979
X166.37Y-84.455
X166.37Y-106.68
X166.624Y-61.468
X166.624Y-72.263
X166.817Y-104.14
X166.878Y-49.911
X167.005Y-95.885
X167.005Y-98.425
X167.386Y-105.41
X167.519Y-73.156
X168.275Y-84.455
X168.275Y-99.06
X168.402Y-74.041
X168.741Y-64.835
X168.91Y-83.185
X169.418Y-74.93
X169.545Y-30.48
X169.545Y-95.885
X169.545Y-98.425
X169.799Y-49.149
X170.18Y-105.41
X170.434Y-75.819
X170.519Y-58.993
X170.815Y-94.615
X170.815Y-97.155
X170.815Y-104.14
X171.45Y-102.87
X172.085Y-60.833
X172.085Y-95.885
X172.085Y-98.425
X172.212Y-83.185
X172.593Y-69.469
X172.974Y-56.261
X173.101Y-57.785
X173.355Y-43.434
X173.356Y-27.941
X173.736Y-44.577
X173.99Y-37.465
X174.095Y-55.223
X174.117Y-53.34
X174.625Y-40.64
X174.752Y-49.911
X175.0Y-64.0
X175.253Y-54.242
X175.768Y-48.514
X175.895Y-40.005
X175.895Y-83.566
X175.901Y-64.901
X176.53Y-91.44
X176.53Y-93.98
X176.53Y-96.52
X177.038Y-70.993
X177.165Y-47.625
X177.165Y-102.87
X177.526Y-66.401
X177.8Y-30.48
X177.8Y-90.17
X177.8Y-92.71
X177.8Y-95.25
X178.054Y-41.402
X178.308Y-67.31
X178.348Y-71.893
X178.435Y-85.725
X178.435Y-86.995
X178.435Y-102.87
X178.435Y-105.41
X178.625Y-83.375
X179.578Y-65.913
X179.578Y-67.437
X179.705Y-78.105
X179.741Y-106.081
X180.467Y-54.356
X180.975Y-78.105
X181.356Y-67.945
X181.737Y-54.991
X181.737Y-66.548
X181.864Y-107.95
X182.245Y-41.402
X182.245Y-45.72
X182.245Y-53.086
X182.88Y-113.03
X183.388Y-31.75
X183.642Y-63.754
X183.769Y-65.151
X184.912Y-61.849
X185.039Y-71.755
X185.205Y-63.151
X185.42Y-88.519
X185.547Y-36.703
X185.674Y-60.96
X186.055Y-30.48
X186.055Y-44.704
X186.182Y-68.326
X186.309Y-70.485
X186.436Y-71.755
X186.69Y-43.434
X186.69Y-95.25
X187.0Y-61.0
X187.261Y-45.106
X187.452Y-59.817
X187.96Y-70.485
X187.96Y-95.25
X188.03Y-40.03
X188.23Y-60.87
X188.595Y-30.48
X189.93Y-100.265
X190.881Y-102.87
X191.008Y-41.275
X191.135Y-68.58
X191.77Y-95.25
X192.024Y-44.704
X192.059Y-69.538
X193.04Y-70.485
X193.04Y-95.25
X193.929Y-64.135
X194.291Y-95.269
X194.31Y-35.56
X195.0Y-59.0
X195.453Y-57.785
X197.316Y-55.056
X197.485Y-97.155
X197.993Y-79.375
X198.12Y-32.385
X198.12Y-41.16
X198.628Y-70.612
X199.39Y-41.91
X199.39Y-43.18
X199.39Y-72.009
X199.898Y-73.406
X200.66Y-42.545
X201.041Y-46.99
X201.422Y-92.71
X201.93Y-20.955
X201.93Y-32.385
X201.93Y-41.275
X202.819Y-42.545
X202.819Y-78.232
X203.2Y-73.025
X204.089Y-81.407
X204.216Y-74.295
X205.74Y-25.4
X205.74Y-81.407
X206.153Y-96.107
X207.137Y-83.566
X207.137Y-84.963
X207.28Y-47.134
X207.645Y-101.473
X207.772Y-109.093
X208.153Y-57.912
X208.238Y-54.929
X208.915Y-50.8
X208.915Y-70.612
X209.183Y-109.48
X209.433Y-104.394
X210.185Y-50.165
X210.433Y-109.48
X210.683Y-104.394
X211.455Y-40.64
X212.174Y-102.095
X212.471Y-104.902
X213.233Y-65.024
X214.63Y-31.115
X215.265Y-102.53
X215.519Y-84.201
X215.9Y-29.845
X216.154Y-52.451
X216.17Y-36.085
X217.043Y-84.201
X217.17Y-54.737
X217.17Y-65.024
X217.17Y-86.36
X217.17Y-87.884
X217.424Y-45.339
X217.763Y-67.121
X218.694Y-48.387
X220.091Y-61.595
X220.091Y-71.882
X220.345Y-22.225
X226.33Y-47.769
X227.6Y-46.499
T2
X150.535Y-23.495
X153.035Y-23.495
X167.045Y-23.495
X169.545Y-23.495
X125.135Y-23.495
X127.635Y-23.495
X183.555Y-23.495
X186.055Y-23.495
X116.88Y-23.495
X119.38Y-23.495
X133.39Y-23.495
X135.89Y-23.495
X142.28Y-23.495
X144.78Y-23.495
X175.3Y-23.495
X177.8Y-23.495
X158.79Y-23.495
X161.29Y-23.495
T3
X141.725Y-111.76
X144.225Y-111.76
X146.725Y-111.76
X149.225Y-111.76
X118.865Y-111.76
X121.365Y-111.76
X123.865Y-111.76
X126.365Y-111.76
X96.005Y-111.76
X98.505Y-111.76
X101.005Y-111.76
X103.505Y-111.76
X164.585Y-111.76
X167.085Y-111.76
X169.585Y-111.76
X172.085Y-111.76
T4
X101.219Y-75.692
X101.6Y-73.914
X102.489Y-76.962
X102.87Y-75.184
X103.759Y-78.359
X104.14Y-76.581
X227.33Y-92.075
X227.33Y-94.615
X227.33Y-97.155
X234.315Y-56.515
X234.315Y-59.055
X234.315Y-61.595
X234.315Y-64.135
X234.315Y-66.675
X234.315Y-69.215
X234.315Y-71.755
X234.315Y-74.295
X234.315Y-76.835
X234.315Y-79.375
X234.315Y-81.915
X234.315Y-84.455
X234.315Y-86.995
X234.315Y-89.535
X234.315Y-92.075
X234.315Y-94.615
X234.315Y-97.155
X234.315Y-99.695
X234.315Y-102.235
X234.315Y-104.775
X236.855Y-56.515
X236.855Y-59.055
X236.855Y-61.595
X236.855Y-64.135
X236.855Y-66.675
X236.855Y-69.215
X236.855Y-71.755
X236.855Y-74.295
X236.855Y-76.835
X236.855Y-79.375
X236.855Y-81.915
X236.855Y-84.455
X236.855Y-86.995
X236.855Y-89.535
X236.855Y-92.075
X236.855Y-94.615
X236.855Y-97.155
X236.855Y-99.695
X236.855Y-102.235
X236.855Y-104.775
X225.425Y-60.325
X225.425Y-62.865
X225.425Y-65.405
X225.425Y-67.945
X225.425Y-70.485
X227.965Y-60.325
X227.965Y-62.865
X227.965Y-65.405
X227.965Y-67.945
X227.965Y-70.485
X227.33Y-81.915
X227.33Y-84.455
X227.33Y-86.995
T5
X94.065Y-26.735
X99.065Y-26.735
X104.065Y-26.735
X109.065Y-26.735
X88.9Y-62.93
X88.9Y-67.93
T6
X87.67Y-57.15
X96.87Y-57.15
X87.63Y-41.91
X96.83Y-41.91
X87.63Y-48.26
X96.83Y-48.26
T7
X236.0Y-24.0
X236.0Y-111.0
X86.0Y-24.0
X86.0Y-111.0
T1
G00X205.568Y-113.665
M15
G01X205.568Y-114.265
M16
G05
G00X205.928Y-107.715
M15
G01X205.928Y-108.315
M16
G05
G00X214.188Y-107.715
M15
G01X214.188Y-108.315
M16
G05
G00X214.548Y-113.665
M15
G01X214.548Y-114.265
M16
G05
T0
M30
